<?xml version="1.0" encoding="UTF-8" standalone="no"?>
<!-- Created with Inkscape (http://www.inkscape.org/) -->

<svg
   xmlns:dc="http://purl.org/dc/elements/1.1/"
   xmlns:cc="http://creativecommons.org/ns#"
   xmlns:rdf="http://www.w3.org/1999/02/22-rdf-syntax-ns#"
   xmlns:svg="http://www.w3.org/2000/svg"
   xmlns="http://www.w3.org/2000/svg"
   xmlns:sodipodi="http://sodipodi.sourceforge.net/DTD/sodipodi-0.dtd"
   xmlns:inkscape="http://www.inkscape.org/namespaces/inkscape"
   version="1.1"
   width="500"
   height="500"
   id="svg2"
   xml:space="preserve"
   inkscape:version="0.48.2 r9819"
   sodipodi:docname="Mauritius Road Signs - Regulatory Sign - Speed limit 60.svg"><sodipodi:namedview
     pagecolor="#ffffff"
     bordercolor="#666666"
     borderopacity="1"
     objecttolerance="10"
     gridtolerance="10"
     guidetolerance="10"
     inkscape:pageopacity="0"
     inkscape:pageshadow="2"
     inkscape:window-width="1024"
     inkscape:window-height="706"
     id="namedview13"
     showgrid="false"
     fit-margin-top="0"
     fit-margin-left="0"
     fit-margin-right="0"
     fit-margin-bottom="0"
     inkscape:zoom="0.69232574"
     inkscape:cx="170.38001"
     inkscape:cy="285.9925"
     inkscape:window-x="-8"
     inkscape:window-y="-8"
     inkscape:window-maximized="1"
     inkscape:current-layer="g12" /><defs
     id="defs14" /><metadata
     id="metadata8"><rdf:RDF><cc:Work
         rdf:about=""><dc:format>image/svg+xml</dc:format><dc:type
           rdf:resource="http://purl.org/dc/dcmitype/StillImage" /></cc:Work></rdf:RDF></metadata><g
     transform="matrix(2.201027,0,0,-2.20022,-354.40933,1077.6017)"
     id="g10"><g
       transform="scale(0.1,0.1)"
       id="g12"><path
         d="M 2746.0333,4897.7 C 3373.3416,4897.3667 3881.9499,4388.725 3881.8666,3761.0333 3881.9832,3133.875 3373.3416,2625.2 2746.0333,2625.2 2118.5,2625.2333 1609.8666,3133.875 1610.2,3761.0333 1609.85,4388.725 2118.5,4897.3667 2746.0333,4897.7"
         inkscape:connector-curvature="0"
         id="path14"
         style="fill:#db0000;fill-opacity:1" /><path
         d="m 2746.0333,4671.0334 c 502.35,0.058 909.6666,-407.2751 910,-910.0001 -0.3167,-502.1916 -407.65,-909.5 -910,-909.1666 -502.575,-0.3667 -909.9167,406.975 -910,909.1666 0.092,502.725 407.425,910.0834 910,910.0001"
         inkscape:connector-curvature="0"
         id="path16"
         style="fill:#ffffff" /><path
         d="m 2641.0333,3641.0333 c 0.075,-148.625 -55.125,-309.425 -289.1667,-309.1666 -220.7416,-0.2584 -337.1416,147.3416 -337.5,435 0.3584,294.3333 103.5584,433.525 331.6667,433.3333 152.275,0.1917 233.875,-50.2083 276.6666,-180.8333 l -154.1666,-57.5 c -17.0167,39.3333 -44.6167,84.925 -135.8334,85 -89.9833,-0.075 -153.5833,-80.4667 -144.1666,-181.6667 25.3833,24.4 102.1833,60.4 180,60 171.775,0.4 272.575,-104 272.5,-284.1667"
         inkscape:connector-curvature="0"
         id="path18" /><path
         d="m 2474.3666,3632.7 c -0.05,80.5 -55.25,139.3 -134.1667,139.1667 -83.0833,0.1333 -140.6833,-58.6667 -140.8333,-145 0.15,-84.0584 57.75,-140.4584 138.3333,-140.8334 81.4167,0.375 136.6167,59.175 136.6667,146.6667"
         inkscape:connector-curvature="0"
         id="path20"
         style="fill:#ffffff" /><path
         d="m 3156.8666,3318.5333 c -237.6,-0.125 -357.6,153.475 -357.5,437.5 -0.1,299.1667 124.7,444.3584 356.6667,444.1667 243.225,0.1917 358.425,-157.0083 358.3333,-442.5 0.092,-283.2917 -117.5083,-439.2917 -357.5,-439.1667"
         inkscape:connector-curvature="0"
         id="path22" /><path
         d="m 3157.6999,4039.3667 c -125.6333,0.225 -180.8333,-92.1667 -180.8333,-280.8334 0,-174.925 58.8,-279.325 180.8333,-279.1666 123.9584,-0.1584 180.3584,93.4416 180,279.1666 0.3584,182.6667 -56.0416,281.0584 -180,280.8334"
         inkscape:connector-curvature="0"
         id="path24"
         style="fill:#ffffff" /></g></g></svg>